<?xml version="1.0" encoding="UTF-8" standalone="no"?>
<!-- Created with Inkscape (http://www.inkscape.org/) -->

<svg
   xmlns:dc="http://purl.org/dc/elements/1.1/"
   xmlns:cc="http://creativecommons.org/ns#"
   xmlns:rdf="http://www.w3.org/1999/02/22-rdf-syntax-ns#"
   xmlns:svg="http://www.w3.org/2000/svg"
   xmlns="http://www.w3.org/2000/svg"
   xmlns:sodipodi="http://sodipodi.sourceforge.net/DTD/sodipodi-0.dtd"
   xmlns:inkscape="http://www.inkscape.org/namespaces/inkscape"
   width="240mm"
   height="240mm"
   viewBox="-50 0 240 240"
   version="1.1"
>
  <defs
     id="defs14266">
    <clipPath
       id="clipPath14292"
       clipPathUnits="userSpaceOnUse">
     
    </clipPath>
  </defs>

  <metadata
     id="metadata14269">
    <rdf:RDF>
      <cc:Work
         rdf:about="">
        <dc:format>image/svg+xml</dc:format>
        <dc:type
           rdf:resource="http://purl.org/dc/dcmitype/StillImage" />
        <dc:title />
      </cc:Work>
    </rdf:RDF>
  </metadata>
  <g
     inkscape:label="Camada 1"
     inkscape:groupmode="layer"
     id="layer1"
     transform="translate(382.12913,-44.37532)">
    <g
       id="g4661">
      <g
         id="g4632">
        <path
           style="fill:#ffffff;stroke:#ffffff;stroke-width:0.26458332px;stroke-linecap:butt;stroke-linejoin:miter;stroke-opacity:1"
           d="m -362.14452,62.531729 -10.09993,21.571692 -0.41298,19.404539 -0.4484,36.50889 18.52084,47.62501 72.9494,12.85118 30.2381,-63.87798 1.5119,-46.491068 -15.11905,-27.592263 -75.97321,-8.315475 z"
           id="path818"
           inkscape:connector-curvature="0"
           sodipodi:nodetypes="ccccccccccc" />
        <g
           id="g14422"
           transform="matrix(0.7935005,0,0,-0.7935005,-287.55845,181.20034)"
           style="fill:#944b32;fill-opacity:1">
          <path
             d="m 0,0 c -7.238,-10.341 -31.539,-8.79 -31.539,-8.79 0,0 -24.301,-1.551 -31.54,8.79 -7.238,10.341 27.403,-0.517 31.54,11.892 C -27.403,-0.517 7.239,10.341 0,0 m 46.017,22.233 c -2.585,16.028 3.896,38.249 0,40.846 C 39.813,67.216 38.778,54.29 36.193,38.261 33.608,22.233 17.58,14.994 17.58,14.994 c 0,0 -7.756,9.824 -16.546,15.512 -8.789,5.687 -32.573,6.204 -32.573,6.204 0,0 -23.784,-0.517 -32.574,-6.204 -8.789,-5.688 -16.545,-15.512 -16.545,-15.512 0,0 -16.029,7.239 -18.613,23.267 -2.586,16.029 -3.62,28.955 -9.825,24.818 -3.896,-2.597 2.586,-24.818 0,-40.846 -2.585,-16.028 -11.375,-29.988 -6.204,-46.534 5.171,-16.545 8.79,-36.193 8.79,-44.466 0,-8.272 7.755,-20.681 18.613,-25.335 10.858,-4.653 13.678,-18.096 30.506,-18.613 14.553,-0.447 15.511,-5.687 25.852,-5.687 10.341,0 11.299,5.24 25.852,5.687 16.828,0.517 19.648,13.96 30.505,18.613 10.858,4.654 18.614,17.063 18.614,25.335 0,8.273 3.619,27.921 8.79,44.466 5.17,16.546 -3.619,30.506 -6.205,46.534"
             style="fill:#944b32;fill-opacity:1;fill-rule:nonzero;stroke:none"
             id="path14424"
             inkscape:connector-curvature="0" />
        </g>
        <path
           d="m -372.65743,103.50798 c 0,0 2.38964,-21.916317 5.10047,-25.983061 2.745,-4.124348 6.1153,-10.959026 17.74069,-12.201986 11.62386,-1.242127 20.69516,-0.228664 23.04288,0 5.24792,0.514886 5.50857,0.791683 12.84816,0.226909 7.34424,-0.565608 8.76872,-1.560155 19.16982,-0.893105 10.39798,0.666174 18.76328,2.135231 24.067,2.022632 5.29908,-0.113364 5.70876,-1.016928 7.1348,0.677352 1.42907,1.694257 6.72818,19.883367 7.54591,22.254976 0.81465,2.372505 1.62932,12.766753 1.83569,13.896263 0.20199,1.12952 6.17424,-8.134367 6.11839,-12.879336 -0.0351,-3.058454 -1.28169,-23.158449 -9.79126,-24.740961 0,0 -0.22043,-9.149549 -19.59033,-15.362722 -17.15262,-5.500567 -18.80828,-3.389391 -24.86304,-4.632374 -5.02292,-1.029796 -16.92763,-2.371627 -27.12698,-0.790828 0,0 -6.32014,0 -9.99147,0.564755 0,0 -6.72977,0.338682 -9.17369,1.355588 0,0 -14.27729,1.582519 -16.31777,4.971913 0,0 -4.48603,1.919481 -5.50548,3.840681 0,0 -7.95407,4.179363 -6.72978,9.375613 0,0 -0.81619,4.29372 -2.0374,6.325798 0,0 -2.24375,3.276793 4.48603,-1.242127 0,0 -2.62087,5.214334 -2.85672,7.908311 -0.33517,3.845841 -1.22275,22.593669 4.89408,25.305689"
           style="fill:#944b32;fill-opacity:1;fill-rule:nonzero;stroke:none;stroke-width:0.11549223"
           id="path34"
           inkscape:connector-curvature="0" />
        <path
           d="m -252.46466,105.08521 c -2.19767,0 -20.15229,0.30581 -24.24929,0.735 -5.45059,0.57123 -19.94673,2.83444 -23.88367,3.93511 -3.93327,1.09887 -12.16742,2.19408 -12.16742,2.19408 0,0 -8.2359,-1.09521 -12.17284,-2.19408 -3.93332,-1.10067 -18.43122,-3.36388 -23.88185,-3.93511 -4.09887,-0.42959 -22.05343,-0.735 -24.24749,-0.735 -2.19768,0 -5.49246,1.8302 -9.06191,3.433 0,0 0.64226,7.27534 2.19773,8.82902 0,0 1.92115,0.46 2.56336,1.64828 0.63859,1.18979 2.83446,8.78351 3.74778,11.62161 0.91692,2.83811 3.11459,9.33294 5.76531,11.25415 2.65433,1.91934 9.2438,4.93756 18.48945,4.93756 9.23652,0 18.66411,1.55914 25.07164,-8.78171 6.4039,-10.33726 6.22197,-15.55494 7.95938,-16.55921 1.73926,-1.00791 3.56944,-0.96602 3.56944,-0.96602 0,0 1.83024,-0.0412 3.56404,0.96602 1.74286,1.00427 1.55726,6.22195 7.96664,16.55921 6.40025,10.34085 15.82784,8.78171 25.06983,8.78171 9.242,0 15.82966,-3.01822 18.48398,-4.93756 2.65433,-1.92121 4.85024,-8.41604 5.76532,-11.25415 0.91693,-2.8381 3.11464,-10.43182 3.74957,-11.62161 0.6404,-1.18803 2.56157,-1.64828 2.56157,-1.64828 1.55547,-1.55368 2.19587,-8.82902 2.19587,-8.82902 -3.56578,-1.6028 -6.86053,-3.433 -9.05644,-3.433"
           style="fill:#000000;fill-opacity:1;fill-rule:nonzero;stroke:none;stroke-width:0.18192904"
           id="path36"
           inkscape:connector-curvature="0"
           sodipodi:nodetypes="ccccccscccccscccccscccccc" />
      </g>
    </g>
  </g>
</svg>
